<svg xmlns="http://www.w3.org/2000/svg" viewBox="0 0 129.68 136.01"><defs></defs><g id="Capa_2" data-name="Capa 2"><g id="Capa_2-2" data-name="Capa 2"><path class="cls-1" d="M62.36,33.58c14.73.5,29.47,1.06,44.21,1.48,17,.48,22.28,5.36,22.68,22.61.46,19.65.32,39.3.43,59-2.31,14.56-10.88,19.75-25.44,19.37-27.72-.72-55.48,0-83.23-.16C5.34,135.73.29,130.56.13,114.72q-.29-29.49,0-59C.34,38.84,3.61,36,21,35.22,34.76,34.61,48.68,37.17,62.36,33.58Z"/><path class="cls-1" d="M108.24,16.54c2.11,1.55,5,3.05,4.45,6-.6,3.45-4,2.7-6.51,2.73-14.57.23-29.13.33-43.7.48H13.08c2.66-9.06,8.77-8.94,14.76-9Q68,16.62,108.24,16.54Z"/><path class="cls-1" d="M94.77,0c4.23,1.44,8.69,2.7,6.94,8.83-21.8-.06-43.6,0-65.39-.26-3.21,0-8.58,1.9-9.07-2.69C26.65.34,32.32.8,36.1.73,55.65.37,75.21.22,94.77,0Z"/></g></g></svg>