<svg xmlns="http://www.w3.org/2000/svg" viewBox="0 0 158.12 128.68"><defs></defs><g id="Capa_2" data-name="Capa 2"><g id="Capa_1-2" data-name="Capa 1"><path class="cls-1" d="M94.53,28.11c13.39.14,26.78.19,40.17.45,17.19.34,23,6.18,23.28,23.6.23,14.75.1,29.51.11,44.26,0,27.85-3.08,31.15-30.17,32.26-24.46-.17-48.93-.27-73.39-.52-17.67-.17-23.45-5.69-23.65-23q-.31-26.26,0-52.54c.25-19.87,4.49-23.79,24.88-24C68.69,28.5,81.61,28.29,94.53,28.11ZM89,116.71c14.81.13,29.62.22,44.43.42,5.36.07,10.51-.36,12.44-6.38,1.75-5.47,1.88-10.77-3-15.23C112.47,67.91,117.68,66,90.34,91.12l-7,6.48c-12.41-8.55-24.56-16.4-36.62.92-2.72,3.9-6.07,6.9-4.21,12,2.07,5.7,6.7,6.88,12.17,6.75C66.11,117,77.57,116.89,89,116.71ZM77.59,78.06c8.08-1.57,12.5-6.12,12.07-14.4-.41-7.82-5.48-12.12-12.65-12-7.87.14-13.13,5.17-12.87,13.37S69.8,77.18,77.59,78.06Z"/><path class="cls-1" d="M125.88,20l-3.57.75c-24-.15-48.12-.86-72.16-.27-18,.44-26.71,9.81-27.49,28-.56,12.91.07,25.88-.29,38.8-.11,4.12,2.7,10.37-3.75,11.7-5,1-10-1.41-13.73-5.32C.75,89.33,0,84,0,78.26.11,59.32-.11,40.37.11,21.43.3,6,5.64.46,21,.3,51.05,0,81.14.08,111.22,0c7,1.39,12.1,5.06,14.59,11.92C125.83,14.61,125.86,17.3,125.88,20Z"/><path class="cls-2" d="M125.88,20c0-2.69,0-5.38-.07-8.07C128.31,14.59,128.66,17.28,125.88,20Z"/></g></g></svg>