<svg xmlns="http://www.w3.org/2000/svg" viewBox="0 0 225 225"><defs><style>.cls-1{fill:#1c1514;}.cls-2{fill:#fff;}.cls-3{fill:#58b25d;}</style></defs><g id="Capa_2" data-name="Capa 2"><g id="Capa_1-2" data-name="Capa 1"><path class="cls-1" d="M.1,223.79Q.1,114.06,0,4.32C0,.74.74,0,4.32,0Q114.06.2,223.79.1q0,109.35.11,218.71c0,4.13-1,5.1-5.09,5.09Q109.46,223.68.1,223.79ZM200,112.61c1.59-48.2-40.19-89-88.08-88.94-46.79.06-88.28,39.5-88.21,88.6.06,45.9,39.18,87.75,87.9,88C159.12,200.49,201,160,200,112.61Z"/><path class="cls-2" d="M.1,223.79q109.35,0,218.71.11c4.13,0,5.1-1,5.09-5.09Q223.68,109.46,223.79.1c2-.15,1,1.36,1,2q.07,110,.11,220c0,2.34-.45,2.8-2.79,2.79q-110-.12-220-.11C1.46,224.74,0,225.75.1,223.79Z"/><path class="cls-3" d="M200,112.61c1,47.34-40.83,87.88-88.39,87.65-48.72-.24-87.84-42.09-87.9-88-.07-49.1,41.42-88.54,88.21-88.6C159.76,23.62,201.54,64.41,200,112.61ZM99.25,70.69c-3.48,0-7-.13-10.43,0a89.36,89.36,0,0,0-10.84,1c-6.79,1.18-13.63,2.29-20.27,4.1s-8.73,9.95-3.88,14c3.09,2.58,6.69,1.95,10.34,1.07a153.43,153.43,0,0,1,72.49.22,120,120,0,0,1,27.54,10.57,8.16,8.16,0,0,0,11.19-3.09c2.15-3.82.8-8.2-3.49-11a51.74,51.74,0,0,0-5.6-3.1C145.1,74.41,122.56,70.68,99.25,70.69Zm3.5,30.4a126.13,126.13,0,0,0-39.57,4.47c-5.54,1.59-7.69,7-4.55,11,2.62,3.31,6.09,2.68,9.48,1.74,22.43-6.21,44.63-4.78,66.62,2.12A97,97,0,0,1,153.58,129c3.86,2.19,7.81.91,9.74-2.65,2.13-3.92.06-6.6-2.85-8.89a23,23,0,0,0-3.42-2C140.11,106.28,121.94,101.8,102.75,101.09Zm44.92,52.15c2.64.29,4.22-1.39,5-3.69,1.06-3-.52-4.94-3-6.47-14.13-8.6-29.61-12.6-46-13.26a148,148,0,0,0-37.86,3.65c-3.17.69-5.68,2.69-4.91,6.27s3.43,5.09,7.15,4.4c3.88-.71,7.75-1.47,11.64-2.13,22-3.78,43-1.34,62.84,9.27C144.13,152.13,145.57,153.31,147.67,153.24Z"/><path class="cls-1" d="M99.25,70.69c23.31,0,45.85,3.72,67.05,13.89a51.74,51.74,0,0,1,5.6,3.1c4.29,2.76,5.64,7.14,3.49,11a8.16,8.16,0,0,1-11.19,3.09,120,120,0,0,0-27.54-10.57,153.43,153.43,0,0,0-72.49-.22c-3.65.88-7.25,1.51-10.34-1.07-4.85-4.05-2.74-12.2,3.88-14S71.19,73,78,71.77a89.36,89.36,0,0,1,10.84-1C92.29,70.56,95.77,70.69,99.25,70.69Z"/><path class="cls-1" d="M102.75,101.09c19.19.71,37.36,5.19,54.3,14.35a23,23,0,0,1,3.42,2c2.91,2.29,5,5,2.85,8.89-1.93,3.56-5.88,4.84-9.74,2.65a97,97,0,0,0-18.85-8.51c-22-6.9-44.19-8.33-66.62-2.12-3.39.94-6.86,1.57-9.48-1.74-3.14-4-1-9.43,4.55-11A126.13,126.13,0,0,1,102.75,101.09Z"/><path class="cls-1" d="M147.67,153.24c-2.1.07-3.54-1.11-5.12-2-19.83-10.61-40.88-13.05-62.84-9.27-3.89.66-7.76,1.42-11.64,2.13-3.72.69-6.39-.87-7.15-4.4s1.74-5.58,4.91-6.27a148,148,0,0,1,37.86-3.65c16.38.66,31.86,4.66,46,13.26,2.51,1.53,4.09,3.48,3,6.47C151.89,151.85,150.31,153.53,147.67,153.24Z"/></g></g></svg>