<svg xmlns="http://www.w3.org/2000/svg" viewBox="0 0 272.63 272.59"><defs><style>.cls-1{fill:#fff;}</style></defs><g id="Capa_2" data-name="Capa 2"><g id="Capa_1-2" data-name="Capa 1"><path class="cls-1" d="M144.29,272.59h-16a14.69,14.69,0,0,0-2-.44,125.89,125.89,0,0,1-47.78-12.48C36.68,239.06,11.09,205.85,2.15,160,1.14,154.84.7,149.54,0,144.3v-16A18.67,18.67,0,0,0,.45,126C1.78,107,6.71,88.93,16,72.35,41.14,27.71,79.43,3.4,130.59.25A124.84,124.84,0,0,1,200,16c44.86,25,69.2,63.36,72.39,114.61a126.36,126.36,0,0,1-15.77,69.65q-31.71,57.66-96.56,70.23C154.85,271.44,149.54,271.89,144.29,272.59ZM136.21,34.11C79.93,34.18,34,80.25,34.08,136.47s46,102,102.18,102.05,102.28-46,102.26-102.23S192.45,34,136.21,34.11Z"/></g></g></svg>